<?xml version="1.0" encoding="utf-8"?>
<!-- Generator: Adobe Illustrator 25.1.0, SVG Export Plug-In . SVG Version: 6.00 Build 0)  -->
<svg version="1.1" id="レイヤー_1" xmlns="http://www.w3.org/2000/svg" xmlns:xlink="http://www.w3.org/1999/xlink" x="0px"
	 y="0px" viewBox="0 0 114 33.7" style="enable-background:new 0 0 114 33.7;" xml:space="preserve">
<style type="text/css">
	.st0{enable-background:new    ;}
</style>
<g class="st0">
	<path d="M50.3,5v1.6H60v5.2h-1.4v-4h-18v4h-1.3V6.6H49V5H50.3z M59,26.6H40.3v-8.2H59V26.6z M49,19.4h-7.4v2.4H49V19.4z M49,23
		h-7.4v2.5H49V23z M57.3,16.7H42v-4.2h15.4V16.7z M42.3,9.7H57v1.1H42.3V9.7z M56,13.6H43.2v2H56V13.6z M57.7,19.4h-7.4v2.4h7.4
		V19.4z M57.7,23h-7.4v2.5h7.4V23z"/>
	<path d="M74.4,5v7.1h10.3v1.2H74.4V25h9v1.2H64V25h8.9V13.4H62.7v-1.2h10.2V5H74.4z"/>
	<path d="M98.4,5v2.7h10.3V9H98.4v3.4h8.2v10.2c0,1.1,0,2.4-1.8,2.4h-3.2l-0.4-1.3l3.1,0c0.8,0,0.9-0.6,0.9-0.9v-9.1h-6.8V27H97
		V13.8h-6.8v11.6h-1.3V12.5H97V9H86.6V7.7H97V5H98.4z"/>
</g>
<image style="overflow:visible;" width="238" height="247" xlink:href="../../../../../Downloads/富士市イラレ縁なし.png"  transform="matrix(0.1183 0 0 0.1183 6.6942 2.2452)">
</image>
</svg>
