<?xml version="1.0" encoding="utf-8"?>
<!-- Generator: Adobe Illustrator 25.1.0, SVG Export Plug-In . SVG Version: 6.00 Build 0)  -->
<svg version="1.1" id="レイヤー_1" xmlns="http://www.w3.org/2000/svg" xmlns:xlink="http://www.w3.org/1999/xlink" x="0px"
	 y="0px" viewBox="0 0 114 33.7" style="enable-background:new 0 0 114 33.7;" xml:space="preserve">
<style type="text/css">
	.st0{fill:#F39800;}
	.st1{fill:#FFFFFF;}
	.st2{fill:#289D3B;}
	.st3{font-family:'UDShinGoPr6N-Light-83pv-RKSJ-H';}
	.st4{font-size:24px;}
</style>
<path class="st0" d="M19.5,2.8c-0.6,0-1.1,0.4-1.2,1c-1.9,8.7-6.2,14.6-14.5,16.5c-0.7,0.2-1.1,0.8-1,1.5c0.1,0.6,0.7,1,1.3,1
	c2.1,0.1,4.2,0.6,6.2,1.3c2.4,0.8,4.7,2,6.8,3.4c0.6,0.4,1.4,0.3,1.8-0.3c0.3-0.4,0.3-1,0.1-1.4c-1.6-2.4-1.2-4.7,0.2-6.2
	c1.5-1.7,3.9-2.2,5.9-1.2l0,0c1.1,0.5,1.8,1.1,1.8,1.4c0,0.2-0.1,0.5-0.2,0.7c-0.5,0.7-1.2,1.2-1.9,1.7l0,0
	c-0.9,0.6-1.6,1.5-1.8,2.5c-0.2,0.9,0.1,1.9,0.7,2.6c1.5,1.6,3.9,1.7,5.6,0.3l0,0c3.8-2.9,7.6-5.2,12-4.9c0.7,0,1.3-0.5,1.4-1.2
	c0-0.6-0.4-1.2-1-1.3c-3.9-0.7-7.5-2.7-10-5.8c-2.4-3.1-4.1-6.7-5-10.6c-0.1-0.6-0.6-1-1.2-1L19.5,2.8z M20.5,5.3h3.8
	c1,3.9,2.7,7.5,5.2,10.6c1.7,2,3.8,3.7,6.2,4.9c-2.9,1.1-5.7,2.7-8.1,4.7c-1.2,0.9-1.7,0.5-2,0.1c-0.2-0.2-0.2-0.4-0.2-0.6
	c0-0.2,0.1-0.5,0.6-0.8l0,0c1-0.6,1.9-1.4,2.6-2.4c0.6-0.7,0.8-1.7,0.6-2.6c-0.4-1.7-1.9-2.6-3.3-3.2l0,0c-3.1-1.4-6.7-0.6-8.9,1.9
	c-1.3,1.6-1.9,3.6-1.7,5.6c-1.4-0.7-2.8-1.3-4.3-1.8c-0.7-0.2-1.3-0.4-1.9-0.6C15.1,18.1,18.7,12.4,20.5,5.3z"/>
<path d="M53.4,12.4v1.5H43.2v-1.5h4.1v-1.3h-3V9.6h3V8.4h-3.7V6.9h3.7v-2l2.5,0.1c0,0.2-0.2,0.3-0.5,0.4v1.4H53v1.5h-3.7v1.2h3.1
	v1.5h-3.1v1.2h4.1V12.4z M52.3,15.1v8.8c0,1.9-0.9,2.1-3.6,2.1c-0.2-0.6-0.4-1.2-0.6-1.8H50c0.1,0,0.3-0.1,0.3-0.2c0,0,0,0,0-0.1
	v-1.6h-3.9V26h-2V15.1H52.3z M50.3,16.5h-3.9v1.3h3.9V16.5z M46.5,20.8h3.9v-1.4h-3.9V20.8z M64.4,14.9v1.8h-1.5v4.6H61v-0.7h-2.1v3
	c0,1.7-0.5,2.3-4,2.3c-0.1-0.7-0.4-1.4-0.7-2h2.3c0.3,0,0.4-0.1,0.4-0.4v-3h-2.7v-1.7h2.7v-2.2h-3.8v-1.8h3.8v-2.1h-2.6v-1l-0.2,0.2
	c-0.4-0.4-0.9-0.8-1.4-1.2C54.3,9,55.5,7.1,56.3,5l2.2,0.7c0,0.2-0.2,0.2-0.5,0.2c-0.2,0.4-0.4,0.8-0.5,1.2h3l0.3-0.1l1.5,0.9
	c0,0.1-0.2,0.2-0.4,0.2c-0.5,0.8-1.2,1.9-1.9,2.9h3v3.9L64.4,14.9z M57.8,10.9c0.5-0.7,1-1.5,1.4-2.3h-2.7c-0.5,0.8-1,1.6-1.6,2.3
	H57.8z M58.9,12.8v2.1H61v-2.1H58.9z M61,18.8v-2.2h-2.1v2.2H61z"/>
<path d="M85.9,6.1v17.4c0,2.2-1.1,2.4-4.7,2.4c-0.1-0.7-0.4-1.4-0.7-2c0.8,0,1.5,0.1,2.1,0.1c1,0,1.2,0,1.2-0.5V8.1H68.9v17.7h-2.1
	V6.1H85.9z M81.6,22.8h-1.8v-1.1h-7v1.5H71v-7.6l2.3,0.1c0,0.2-0.2,0.3-0.5,0.3V20h2.5v-5.9h-5.4v-1.8h3c-0.4-1.2-0.9-2.3-1.5-3.3
	l1.7-0.6c0.7,1,1.3,2.1,1.7,3.3l-1.7,0.7h6c-0.4-0.2-0.9-0.4-1.4-0.5c0.7-1.1,1.2-2.3,1.6-3.5l2.3,0.7c-0.1,0.2-0.3,0.2-0.5,0.2
	c-0.5,1.1-1.1,2.1-1.8,3.1h3.6v1.7h-5.3c-0.1,0.1-0.3,0.2-0.5,0.2v5.6h2.5v-4.4l2.3,0.1c0,0.2-0.2,0.3-0.5,0.3v7H81.6z"/>
<path d="M96,21.3c-0.1,0.2-0.3,0.2-0.6,0.2c-1.6,1.6-3.4,3-5.3,4.1c-0.5-0.5-1.1-1-1.7-1.4c1.9-0.9,3.6-2.3,5-3.9L96,21.3z
	 M109.1,19.5H100v6.3h-2.3v-6.3h-5.8v0.6h-2.1V7.1l2.7,0.2c0,0.2-0.2,0.3-0.5,0.4v10.1h17.1V19.5z M106.5,5.8v10.4H94V5.8H106.5z
	 M104.4,8.9V7.4h-8.5v1.5H104.4z M104.4,11.8v-1.5h-8.5v1.5L104.4,11.8z M104.4,14.8v-1.6h-8.5v1.6H104.4z M107.3,25.6
	c-1.7-1.5-3.4-3-5.3-4.3l1.8-1.1c1.9,1.2,3.7,2.6,5.4,4.1L107.3,25.6z"/>
<rect class="st1" width="114" height="31.5"/>
<g>
	<path class="st1" d="M33.8,29.6c-8.7,0-17.3,0-26,0c0-8.9,0-17.9,0-26.8c8.7,0,17.3,0,26,0C33.8,11.7,33.8,20.6,33.8,29.6z
		 M14.4,27.4c0.8,0.4,1.5,0.8,2.3,1.1c2.1,0.8,4.3,0.9,6.5,0.5c1.3-0.3,2.7-0.7,3.8-1.5c0.2-0.1,0.5-0.3,0.7-0.4
		c1.1-0.6,2-1.4,2.7-2.4c0.2-0.2,0.4-0.5,0.6-0.7c0,0,0.1,0,0.1-0.1c1.9-2.8,2.6-5.9,2.1-9.3c-0.4-2.6-1.6-4.9-3.5-6.8
		c-1.6-1.7-3.6-2.8-6-3.3c0.2,0.7,0.4,1.3,0.6,1.9c0.1,0.1,0.2,0.3,0.4,0.3c2.5,1.1,4.5,2.8,5.7,5.2c1.2,2.4,1.4,5,0.7,7.6
		c-0.3,1-0.7,2.1-1.4,3c-0.1-0.2-0.1-0.3-0.1-0.4c-0.4-1.2-0.8-2.5-1.2-3.7c-1-3.1-2.1-6.1-3.1-9.2c-0.2-0.8-0.5-1.4-1.2-1.9
		c-1-0.8-2-1.5-3.4-1.3c-0.2,0-0.5,0-0.7,0c-0.3,0-0.6,0.1-0.8,0.3c-0.7,0.5-1.4,1-2.1,1.5c-0.1,0.1-0.2,0.3-0.2,0.4
		c-0.5,1.6-1,3.1-1.6,4.7c-1,3.1-2.1,6.2-3.2,9.4c-0.1-0.1-0.2-0.1-0.2-0.2c-1.4-2.5-2-5.2-1.3-8c0.9-3.6,3.1-6,6.5-7.5
		c0.1-0.1,0.3-0.2,0.4-0.3c0.2-0.6,0.4-1.3,0.7-2c-0.1,0.1-0.2,0.1-0.2,0.1c-3.6,0.9-6.3,3.1-8,6.3c-1.1,2.1-1.6,4.5-1.3,6.9
		c0.2,2.3,0.9,4.3,2.3,6.1c0.1,0.2,0.3,0.4,0.4,0.6c0.3,0.4,0.7,0.7,1,1.1c0.1,0.1,0.2,0.2,0.3,0.3c0.5,0.4,1,0.7,1.5,1.1
		C14.1,27.2,14.2,27.3,14.4,27.4z M18.5,3.2C18.5,3.2,18.5,3.2,18.5,3.2c1.5,0,3,0,4.5,0c0,0,0,0,0,0C21.5,3.2,20,3.2,18.5,3.2z"/>
	<path class="st2" d="M10.7,24c-1.4-1.8-2-3.9-2.3-6.1c-0.3-2.5,0.2-4.8,1.3-6.9c1.7-3.3,4.4-5.4,8-6.3c0.1,0,0.1-0.1,0.2-0.1
		c-0.2,0.7-0.4,1.4-0.7,2c0,0.1-0.2,0.2-0.4,0.3c-3.3,1.5-5.6,3.9-6.5,7.5c-0.7,2.9-0.2,5.5,1.3,8c0,0.1,0.1,0.1,0.2,0.2
		c1.1-3.2,2.1-6.3,3.2-9.4c0.5-1.6,1-3.1,1.6-4.7c0.1-0.2,0.1-0.3,0.2-0.4c0.7-0.5,1.4-1.1,2.1-1.5c0.2-0.2,0.5-0.2,0.8-0.3
		c0.2,0,0.5,0,0.7,0c1.4-0.3,2.4,0.5,3.4,1.3c0.7,0.5,1,1.2,1.2,1.9c1,3.1,2,6.1,3.1,9.2c0.4,1.2,0.8,2.5,1.2,3.7
		c0,0.1,0.1,0.2,0.1,0.4c0.8-0.9,1.2-2,1.4-3c0.7-2.6,0.5-5.1-0.7-7.6c-1.2-2.5-3.2-4.1-5.7-5.2c-0.2-0.1-0.3-0.2-0.4-0.3
		c-0.2-0.6-0.4-1.2-0.6-1.9c2.3,0.5,4.3,1.7,6,3.3c1.8,1.9,3,4.1,3.5,6.8c0.5,3.4-0.2,6.4-2.1,9.3c0,0-0.1,0.1-0.1,0.1
		c-1.3-1.6-3.1-2.6-5-3.4c-2.2-0.8-4.6-1.1-7-0.8c-2.7,0.3-5.1,1.3-7.2,3C11.3,23.1,11,23.6,10.7,24z"/>
	<path class="st2" d="M13.9,27.1c-0.5-0.4-1-0.7-1.5-1.1c0.1,0.1,0.3,0.2,0.5,0.3c2.1-2.3,4.9-3.3,7.9-3.3c3,0,5.8,1.1,7.8,3.3
		c0.3-0.3,0.5-0.4,0.7-0.6c-2.1-2.4-4.8-3.4-7.8-3.7c-1.9-0.2-3.7,0.2-5.5,0.9c-1.5,0.6-2.9,1.5-3.9,2.8c-0.3-0.4-0.7-0.7-1-1.1
		c0.2-0.1,0.4-0.1,0.5-0.2c0.5-0.4,0.9-0.9,1.5-1.2c2.3-1.6,4.9-2.4,7.7-2.3c3,0,5.7,0.9,8,2.8c0.5,0.4,1,0.7,1.4,1.1
		c-0.7,1-1.6,1.8-2.7,2.4c-1.9-2.2-4.5-3-7.3-2.9c-1.6,0-3.2,0.4-4.6,1.3C15.1,25.9,14.3,26.2,13.9,27.1z"/>
	<path class="st2" d="M27,27.5c-1.1,0.8-2.5,1.2-3.8,1.5c-2.2,0.4-4.4,0.3-6.5-0.5c-0.8-0.3-1.5-0.7-2.3-1.1c0.2,0,0.4,0,0.5-0.1
		c1.4-1.2,2.9-1.9,4.7-2.2c1.9-0.2,3.6,0.1,5.3,1C25.6,26.5,26.3,27,27,27.5z"/>
	<path class="st1" d="M30.3,24.7c-0.5-0.4-1-0.7-1.4-1.1c-2.4-1.8-5-2.7-8-2.8c-2.9,0-5.4,0.8-7.7,2.3c-0.5,0.4-1,0.8-1.5,1.2
		c-0.1,0.1-0.3,0.1-0.5,0.2c-0.1-0.2-0.3-0.4-0.4-0.6c0.3-0.4,0.6-0.8,1-1.2c2.1-1.7,4.5-2.7,7.2-3c2.4-0.3,4.7,0,7,0.8
		c1.9,0.7,3.7,1.7,5,3.4C30.7,24.2,30.5,24.4,30.3,24.7z"/>
	<path class="st1" d="M12.1,25.6c1-1.3,2.4-2.2,3.9-2.8c1.8-0.7,3.6-1.1,5.5-0.9c3,0.3,5.7,1.3,7.8,3.7c-0.2,0.2-0.4,0.4-0.7,0.6
		c-2.1-2.2-4.8-3.3-7.8-3.3c-3,0-5.8,1-7.9,3.3c-0.2-0.1-0.3-0.2-0.5-0.3C12.3,25.9,12.2,25.7,12.1,25.6z"/>
	<path class="st1" d="M27,27.5c-0.7-0.5-1.4-1-2.1-1.4c-1.6-0.9-3.4-1.2-5.3-1c-1.8,0.2-3.4,1-4.7,2.2c-0.1,0.1-0.3,0-0.5,0.1
		c-0.2-0.1-0.3-0.2-0.5-0.3c0.4-0.8,1.2-1.2,1.9-1.6c1.4-0.9,3-1.3,4.6-1.3c2.8,0,5.4,0.7,7.3,2.9C27.4,27.2,27.2,27.4,27,27.5z"/>
	<path class="st2" d="M18.5,3.2c1.5,0,3,0,4.5,0c0,0,0,0,0,0C21.5,3.2,20,3.2,18.5,3.2C18.5,3.2,18.5,3.2,18.5,3.2z"/>
</g>
<text transform="matrix(1 0 0 1 37.63 25.15)" class="st3 st4">富士市</text>
</svg>
