<?xml version="1.0" encoding="utf-8"?>
<!-- Generator: Adobe Illustrator 25.1.0, SVG Export Plug-In . SVG Version: 6.00 Build 0)  -->
<svg version="1.1" id="レイヤー_1" xmlns="http://www.w3.org/2000/svg" xmlns:xlink="http://www.w3.org/1999/xlink" x="0px"
	 y="0px" height="28" viewBox="0 0 111 28" width="111" style="enable-background:new 0 0 111 28;" xml:space="preserve">
<style type="text/css">
	.st0{enable-background:new    ;}
	.st1{fill:#FFFFFF;}
	.st2{fill:#2E963A;}
</style>
<g class="st0">
	<path d="M50.3,5v1.6H60v5.2h-1.4v-4h-18v4h-1.3V6.6H49V5H50.3z M59,26.6H40.3v-8.2H59V26.6z M49,19.4h-7.4v2.4H49V19.4z M49,23
		h-7.4v2.5H49V23z M57.3,16.7H42v-4.2h15.4v4.2H57.3z M42.3,9.7H57v1.1H42.3V9.7z M56,13.6H43.2v2H56V13.6z M57.7,19.4h-7.4v2.4h7.4
		V19.4z M57.7,23h-7.4v2.5h7.4V23z"/>
	<path d="M74.4,5v7.1h10.3v1.2H74.4V25h9v1.2H64V25h8.9V13.4H62.7v-1.2h10.2V5H74.4z"/>
	<path d="M98.4,5v2.7h10.3V9H98.4v3.4h8.2v10.2c0,1.1,0,2.4-1.8,2.4h-3.2l-0.4-1.3h3.1c0.8,0,0.9-0.6,0.9-0.9v-9.1h-6.8V27H97V13.8
		h-6.8v11.6h-1.3V12.5H97V9H86.6V7.7H97V5H98.4z"/>
</g>
<g>
	<path class="st1" d="M34.8,31.5c-9.4,0-18.8,0-28.2,0c0-9.7,0-19.5,0-29.2c9.4,0,18.8,0,28.2,0C34.8,12,34.8,21.7,34.8,31.5z
		 M11.2,23.7c2.4-1.7,5-2.8,8-3c4.4-0.4,8.3,0.7,11.7,3.4c0.3,0.3,0.6,0.6,1,0.8c2.4-3.1,3.3-8.2,1.5-12.7c-1.7-4.1-4.8-6.7-9.2-8
		c0.2,0.6,0.4,1.1,0.5,1.6c0.1,0.3,0.3,0.5,0.6,0.6C31.8,9.1,34.5,17,31,23.1c-0.1,0.2-0.3,0.4-0.5,0.7c-0.1-0.4-0.2-0.6-0.3-0.9
		C28.6,18,27,13.2,25.4,8.3c-0.1-0.2-0.1-0.4-0.3-0.6c-2.4-2-2.4-1.9-5.4-1.9c0,0-0.1,0-0.1,0c-0.2,0.1-0.5,0.1-0.7,0.2
		c-0.7,0.5-1.4,1-2.1,1.6c-0.2,0.2-0.4,0.4-0.5,0.6c-1.4,4-2.7,8.1-4.1,12.1C11.9,21.5,11.6,22.6,11.2,23.7
		c-0.1-0.1-0.3-0.2-0.4-0.4c-1.4-2.4-2-5-1.5-7.8c0.8-4.4,3.2-7.4,7.3-9.2C16.8,6.4,17,6.2,17,6.1c0.2-0.5,0.4-1.1,0.6-1.8
		c-4.6,1.3-7.8,4.1-9.4,8.4c-1.6,4.3-1,8.4,1.5,12.2C10.3,24.5,10.7,24.1,11.2,23.7z M14.4,29.1c3.8,2.3,9.5,2.2,12.8,0
		C24.2,25.8,17.7,25.6,14.4,29.1z M11.4,26.9c2.6-2.6,5.8-3.9,9.4-3.9c3.6,0,6.8,1.3,9.4,3.9c0.3-0.3,0.6-0.6,0.8-0.9
		c-5.3-5.7-15.4-5.6-20.4-0.1c0.1,0.1,0.1,0.2,0.2,0.3C11,26.4,11.2,26.6,11.4,26.9z M12.3,27.7c0.2,0.2,0.5,0.4,0.7,0.5
		c0.4,0.2,0.3,0.2,0.6,0c3.5-2.9,7.4-3.4,11.6-1.7c1.1,0.5,2.1,1.3,3.3,2c0.2-0.2,0.5-0.4,0.8-0.6C25,23,16.4,23.1,12.3,27.7z"/>
	<path class="st2" d="M11.2,23.7c0.4-1.1,0.7-2.3,1.1-3.4c1.4-4,2.7-8.1,4.1-12.1c0.1-0.2,0.3-0.4,0.5-0.6c0.7-0.5,1.4-1.1,2.1-1.6
		c0.2-0.1,0.5-0.2,0.7-0.2c0,0,0.1,0,0.1,0c3,0,3,0,5.4,1.9c0.1,0.1,0.2,0.4,0.3,0.6c1.6,4.9,3.2,9.8,4.8,14.7
		c0.1,0.3,0.2,0.5,0.3,0.9c0.2-0.3,0.4-0.5,0.5-0.7c3.5-6.1,0.7-14.1-5.8-16.7c-0.3-0.1-0.5-0.3-0.6-0.6c-0.1-0.5-0.3-1-0.5-1.6
		c4.4,1.3,7.5,3.9,9.2,8c1.9,4.4,0.9,9.6-1.5,12.7c-0.3-0.3-0.6-0.6-1-0.8c-3.4-2.7-7.3-3.8-11.7-3.4C16.2,21,13.6,22,11.2,23.7
		L11.2,23.7z"/>
	<path class="st2" d="M11.2,23.7c-0.4,0.4-0.9,0.8-1.4,1.2C7.3,21.1,6.7,17,8.3,12.7c1.6-4.4,4.8-7.1,9.4-8.4
		C17.4,5,17.3,5.5,17,6.1c-0.1,0.2-0.2,0.3-0.4,0.4c-4.1,1.7-6.6,4.8-7.3,9.2c-0.5,2.8,0.1,5.4,1.5,7.8
		C10.9,23.5,11.1,23.6,11.2,23.7C11.2,23.7,11.2,23.7,11.2,23.7z"/>
	<path class="st2" d="M14.4,29.1c3.3-3.4,9.8-3.2,12.8,0C24,31.2,18.2,31.4,14.4,29.1z"/>
	<path class="st2" d="M11.4,26.9c-0.2-0.2-0.4-0.4-0.6-0.6c-0.1-0.1-0.1-0.2-0.2-0.3c5-5.5,15.2-5.7,20.4,0.1
		c-0.3,0.3-0.5,0.6-0.8,0.9c-2.6-2.6-5.8-3.9-9.4-3.9C17.2,23,14.1,24.2,11.4,26.9z"/>
	<path class="st2" d="M12.3,27.7c4-4.6,12.7-4.7,17,0.1c-0.3,0.2-0.6,0.5-0.8,0.6c-1.1-0.7-2.1-1.5-3.3-2c-4.2-1.7-8.1-1.2-11.6,1.7
		c-0.3,0.3-0.3,0.3-0.6,0C12.8,28,12.5,27.9,12.3,27.7z"/>
</g>
</svg>
